<?xml version="1.0" standalone="no"?>
<!DOCTYPE svg PUBLIC "-//W3C//DTD SVG 20010904//EN"
 "http://www.w3.org/TR/2001/REC-SVG-20010904/DTD/svg10.dtd">
<svg version="1.0" xmlns="http://www.w3.org/2000/svg"
 width="360.000000pt" height="360.000000pt" viewBox="0 0 360.000000 360.000000"
 preserveAspectRatio="xMidYMid meet">

<g transform="translate(0.000000,360.000000) scale(0.100000,-0.100000)"
fill="#000000" stroke="none">
<path d="M1483 3576 l-28 -24 -3 -190 -3 -190 -84 -26 c-47 -15 -132 -50 -190
-79 l-105 -53 -133 133 c-185 185 -154 190 -414 -69 -260 -259 -255 -229 -73
-413 l131 -131 -50 -105 c-28 -57 -63 -143 -78 -191 l-28 -87 -188 -3 -189 -3
-24 -28 -24 -28 0 -289 0 -289 24 -28 24 -28 192 -5 192 -5 29 -90 c16 -50 50
-133 77 -185 l49 -95 -134 -136 c-185 -190 -190 -158 70 -417 259 -258 227
-253 416 -69 l136 133 60 -33 c68 -37 198 -90 265 -108 l45 -11 5 -193 5 -193
28 -24 28 -24 289 0 289 0 28 24 28 24 3 190 3 190 84 26 c47 15 133 51 192
81 l108 54 135 -134 c122 -122 139 -135 170 -135 32 0 52 16 238 203 170 170
203 208 204 233 1 44 -9 57 -145 192 l-123 123 47 92 c38 74 78 179 105 274 2
8 57 13 194 15 l192 3 24 28 24 28 0 289 0 289 -24 28 -24 28 -190 3 -189 3
-32 97 c-18 53 -53 138 -79 187 l-48 90 133 136 c184 189 190 158 -70 417
-259 258 -227 253 -416 69 l-136 -133 -60 33 c-68 37 -198 90 -265 108 l-45
11 -5 193 -5 193 -28 24 -28 24 -289 0 -289 0 -28 -24z m487 -311 c0 -212 5
-228 87 -250 166 -47 202 -60 301 -111 59 -31 123 -65 143 -75 53 -29 76 -16
217 124 l122 122 117 -118 118 -117 -122 -122 c-67 -68 -127 -136 -133 -152
-12 -32 -11 -34 68 -174 52 -92 86 -178 114 -284 13 -51 30 -93 45 -108 23
-25 26 -25 203 -28 l180 -3 0 -170 0 -169 -165 0 c-212 0 -228 -5 -250 -87
-47 -166 -60 -202 -111 -301 -31 -59 -65 -123 -75 -143 -29 -53 -16 -76 124
-217 l122 -122 -118 -117 -117 -118 -130 130 c-154 153 -154 153 -270 84 -120
-72 -231 -118 -357 -148 -29 -7 -64 -22 -78 -33 -21 -17 -25 -28 -25 -76 0
-31 -3 -114 -7 -184 l-6 -128 -169 0 -168 0 0 165 c0 212 -5 228 -87 250 -166
47 -202 60 -301 111 -59 31 -123 65 -143 75 -53 29 -76 16 -216 -124 l-123
-122 -115 115 c-63 63 -114 118 -113 122 2 4 41 47 88 95 166 173 164 170 163
207 -1 21 -13 52 -31 78 -61 89 -117 219 -152 351 -35 132 -33 131 -251 135
l-179 3 0 169 0 169 181 3 181 3 23 27 c13 15 29 53 35 85 23 110 106 305 169
398 12 17 21 45 21 64 0 31 -14 49 -127 163 l-127 128 117 118 117 117 122
-122 c68 -67 135 -127 150 -132 34 -13 44 -9 133 44 39 22 102 55 140 72 65
30 232 83 259 83 7 0 23 12 37 26 23 25 24 31 27 205 l3 179 170 0 169 0 0
-165z"/>
<path d="M1705 2494 c-277 -45 -509 -250 -581 -514 -24 -89 -24 -271 0 -360
51 -186 192 -358 366 -444 155 -77 323 -94 491 -51 182 47 357 191 443 365
100 203 100 417 0 620 -86 172 -259 316 -439 364 -62 17 -227 28 -280 20z
m198 -179 c213 -45 372 -208 415 -426 14 -73 14 -88 0 -169 -41 -231 -201
-393 -429 -436 -228 -43 -463 79 -564 291 -145 308 38 673 373 740 89 17 124
17 205 0z"/>
</g>
</svg>
